<svg xmlns="http://www.w3.org/2000/svg" viewBox="0 0 900 900" fill="none">
  <defs>
    <radialGradient id="g1" cx="50%" cy="50%" r="50%">
      <stop offset="0%" stop-color="#ffd47a" stop-opacity="0.95"/>
      <stop offset="34%" stop-color="#f0a500" stop-opacity="0.64"/>
      <stop offset="62%" stop-color="#b46300" stop-opacity="0.28"/>
      <stop offset="100%" stop-color="#080808" stop-opacity="0"/>
    </radialGradient>
    <filter id="blur" x="-20%" y="-20%" width="140%" height="140%">
      <feGaussianBlur stdDeviation="18"/>
    </filter>
  </defs>
  <circle cx="450" cy="450" r="360" fill="url(#g1)" filter="url(#blur)"/>
  <circle cx="450" cy="450" r="250" fill="#f0a500" fill-opacity="0.09"/>
  <path d="M255 355c48-93 146-146 224-135 104 14 145 87 171 160 28 81 8 172-57 232-71 64-182 86-267 45-77-37-129-121-128-202 1-34 10-70 57-100z" fill="#f0a500" fill-opacity="0.12"/>
  <path d="M312 287c44 13 72 40 97 77 33 49 80 79 146 85" stroke="#ffe3a6" stroke-opacity="0.3" stroke-width="8" stroke-linecap="round"/>
</svg>