<svg xmlns="http://www.w3.org/2000/svg" viewBox="0 0 1200 900" role="img" aria-label="Shared kitchen illustration">
  <rect width="1200" height="900" fill="#0c0c0c"/>
  <rect x="100" y="110" width="1000" height="690" rx="22" fill="#151515" stroke="#2b2b2b" stroke-width="4"/>
  <rect x="170" y="230" width="860" height="390" rx="18" fill="#1d2426"/>
  <rect x="230" y="290" width="250" height="180" rx="16" fill="#f0a500" opacity="0.15"/>
  <rect x="516" y="290" width="250" height="180" rx="16" fill="#f0a500" opacity="0.1"/>
  <rect x="802" y="290" width="150" height="180" rx="16" fill="#f0a500" opacity="0.08"/>
  <rect x="250" y="516" width="710" height="42" rx="16" fill="#6b4b2a"/>
  <rect x="250" y="538" width="710" height="14" rx="7" fill="#dccab0" opacity="0.72"/>
  <rect x="280" y="250" width="120" height="28" rx="10" fill="#eaeaea" opacity="0.2"/>
  <rect x="560" y="250" width="120" height="28" rx="10" fill="#eaeaea" opacity="0.18"/>
  <rect x="830" y="250" width="90" height="28" rx="10" fill="#eaeaea" opacity="0.18"/>
  <circle cx="315" cy="375" r="58" fill="#101010" stroke="#f0a500" stroke-opacity="0.42" stroke-width="8"/>
  <circle cx="600" cy="375" r="58" fill="#101010" stroke="#f0a500" stroke-opacity="0.42" stroke-width="8"/>
  <circle cx="872" cy="375" r="44" fill="#101010" stroke="#f0a500" stroke-opacity="0.42" stroke-width="8"/>
</svg>