<svg width="1200" height="900" viewBox="0 0 1200 900" fill="none" xmlns="http://www.w3.org/2000/svg" role="img" aria-labelledby="title desc">
  <title id="title">Cafe Y Ruedas evening illustration</title>
  <desc id="desc">An evening view of the cafe with lantern lights, trees, and the open greens outside Intramuros.</desc>
  <rect width="1200" height="900" fill="#080808"/>
  <path d="M0 620C180 560 350 540 500 566C668 596 800 602 960 562C1050 540 1130 538 1200 552V900H0V620Z" fill="#111111"/>
  <path d="M0 654C180 608 350 598 514 622C682 646 818 650 968 620C1056 602 1132 600 1200 614" stroke="#f0a500" stroke-opacity="0.18" stroke-width="2"/>
  <circle cx="968" cy="170" r="84" fill="#f0a500" fill-opacity="0.13"/>
  <circle cx="966" cy="170" r="48" fill="#f0a500" fill-opacity="0.42"/>
  <path d="M0 300C126 270 246 262 360 280C486 300 604 302 734 272C860 242 980 232 1200 264V0H0V300Z" fill="#0E0E0E"/>
  <g opacity="0.95">
    <path d="M136 266V618" stroke="#eaeaea" stroke-opacity="0.12" stroke-width="12" stroke-linecap="round"/>
    <path d="M102 304C126 278 152 268 182 270C214 272 236 286 252 314" stroke="#f0a500" stroke-opacity="0.38" stroke-width="14" stroke-linecap="round"/>
    <path d="M320 264V630" stroke="#eaeaea" stroke-opacity="0.09" stroke-width="10" stroke-linecap="round"/>
    <path d="M288 306C314 282 342 272 372 274C402 278 424 292 442 318" stroke="#f0a500" stroke-opacity="0.35" stroke-width="12" stroke-linecap="round"/>
    <path d="M860 250V612" stroke="#eaeaea" stroke-opacity="0.08" stroke-width="10" stroke-linecap="round"/>
    <path d="M828 294C854 270 882 260 912 262C942 266 964 280 980 308" stroke="#f0a500" stroke-opacity="0.34" stroke-width="12" stroke-linecap="round"/>
    <path d="M1070 276V634" stroke="#eaeaea" stroke-opacity="0.08" stroke-width="10" stroke-linecap="round"/>
    <path d="M1038 318C1064 294 1092 284 1122 286C1152 290 1174 304 1190 332" stroke="#f0a500" stroke-opacity="0.34" stroke-width="12" stroke-linecap="round"/>
  </g>
  <g stroke="#f0a500" stroke-linecap="round">
    <path d="M156 116V222" stroke-opacity="0.5" stroke-width="4"/>
    <path d="M156 144H179" stroke-opacity="0.5" stroke-width="4"/>
    <path d="M340 112V210" stroke-opacity="0.42" stroke-width="4"/>
    <path d="M340 140H366" stroke-opacity="0.42" stroke-width="4"/>
    <path d="M822 114V210" stroke-opacity="0.42" stroke-width="4"/>
    <path d="M822 138H848" stroke-opacity="0.42" stroke-width="4"/>
  </g>
  <g>
    <rect x="200" y="648" width="208" height="78" rx="26" fill="#141414" stroke="#eaeaea" stroke-opacity="0.12"/>
    <rect x="456" y="636" width="208" height="78" rx="26" fill="#141414" stroke="#eaeaea" stroke-opacity="0.12"/>
    <rect x="712" y="648" width="208" height="78" rx="26" fill="#141414" stroke="#eaeaea" stroke-opacity="0.12"/>
    <rect x="968" y="636" width="164" height="78" rx="26" fill="#141414" stroke="#eaeaea" stroke-opacity="0.12"/>
  </g>
  <g stroke="#eaeaea" stroke-opacity="0.1" stroke-linecap="round">
    <path d="M0 742H1200" stroke-width="2"/>
    <path d="M0 782H1200" stroke-width="2"/>
  </g>
</svg>