<svg xmlns="http://www.w3.org/2000/svg" viewBox="0 0 900 1100" role="img" aria-label="Illustrated breakfast plate">
  <defs>
    <linearGradient id="gBg" x1="0" y1="0" x2="1" y2="1">
      <stop offset="0" stop-color="#0f0f0f"/>
      <stop offset="1" stop-color="#080808"/>
    </linearGradient>
    <radialGradient id="gGlow" cx="50%" cy="18%" r="62%">
      <stop offset="0" stop-color="#f0a500" stop-opacity="0.24"/>
      <stop offset="1" stop-color="#f0a500" stop-opacity="0"/>
    </radialGradient>
    <linearGradient id="plate" x1="0" y1="0" x2="0" y2="1">
      <stop offset="0" stop-color="#f1f1f1"/>
      <stop offset="1" stop-color="#dcdcdc"/>
    </linearGradient>
    <linearGradient id="rice" x1="0" y1="0" x2="0" y2="1">
      <stop offset="0" stop-color="#f8f6f0"/>
      <stop offset="1" stop-color="#d6d0c7"/>
    </linearGradient>
  </defs>
  <rect width="900" height="1100" fill="url(#gBg)"/>
  <rect width="900" height="1100" fill="url(#gGlow)"/>
  <ellipse cx="450" cy="860" rx="290" ry="56" fill="#000" opacity="0.4"/>
  <circle cx="450" cy="690" r="250" fill="url(#plate)"/>
  <circle cx="450" cy="690" r="180" fill="#080808"/>
  <circle cx="450" cy="690" r="146" fill="#0f0f0f"/>

  <path d="M337 625c42-44 82-58 112-40 23 13 46 11 72-4 37-21 83-9 119 36 25 31 31 69 18 113-18 56-57 109-120 118-47 7-73-10-100-10-29 0-61 19-103 8-65-16-111-71-120-126-7-43 11-83 42-95Z" fill="#111"/>

  <path d="M344 570c33-25 70-28 112-9 44-18 82-15 114 9-20 25-57 38-112 38-55 0-92-13-114-38Z" fill="#f0a500" opacity="0.8"/>
  <path d="M360 580c23-17 47-19 72-7 24-12 48-10 70 7-14 16-35 24-70 24-35 0-57-8-72-24Z" fill="url(#rice)"/>

  <path d="M327 746c-14 22-19 44-15 66 7 37 28 67 66 92 20-19 47-32 80-40 43-11 73-4 108 8 29 10 55 17 84 11 39-8 73-29 98-62 21-29 31-59 29-91-26-15-60-25-103-28-51-3-88 11-115 11-28 0-63-16-103-9-39 6-69 19-89 42Z" fill="#1a1a1a"/>

  <path d="M332 652c0 56 46 102 103 102s103-46 103-102-46-103-103-103-103 46-103 103Z" fill="#f0a500" opacity="0.72"/>
  <path d="M354 658c0 39 32 70 71 70s71-31 71-70-32-71-71-71-71 32-71 71Z" fill="#eaeaea" opacity="0.88"/>
  <path d="M390 636c-5 0-9 4-9 9s4 9 9 9h76c5 0 9-4 9-9s-4-9-9-9z" fill="#f0a500" opacity="0.4"/>

  <path d="M557 549c0-55 45-100 100-100s100 45 100 100-45 100-100 100-100-45-100-100Z" fill="#eaeaea"/>
  <path d="M593 549c0-34 28-62 62-62s62 28 62 62-28 62-62 62-62-28-62-62Z" fill="#f0a500" opacity="0.95"/>
  <path d="M651 470c11-18 19-39 19-63" fill="none" stroke="#eaeaea" stroke-opacity="0.55" stroke-width="7" stroke-linecap="round"/>

  <g transform="translate(182 790)">
    <rect x="0" y="0" width="185" height="132" rx="32" fill="#f0a500" opacity="0.95"/>
    <rect x="16" y="16" width="153" height="100" rx="24" fill="#080808" opacity="0.2"/>
    <path d="M42 34c8 0 14 7 14 15v28c0 8-6 15-14 15s-14-7-14-15V49c0-8 6-15 14-15Zm54 0c8 0 14 7 14 15v28c0 8-6 15-14 15s-14-7-14-15V49c0-8 6-15 14-15Z" fill="#eaeaea" opacity="0.9"/>
    <circle cx="145" cy="72" r="17" fill="#eaeaea" opacity="0.86"/>
  </g>

  <g transform="translate(552 770)">
    <path d="M52 0c18 0 32 14 32 32 0 25-32 63-32 63S20 57 20 32C20 14 34 0 52 0Z" fill="#f0a500"/>
    <circle cx="52" cy="32" r="14" fill="#080808" opacity="0.88"/>
    <path d="M124 18h88" stroke="#f0a500" stroke-opacity="0.4" stroke-width="6" stroke-linecap="round"/>
    <path d="M124 40h120" stroke="#eaeaea" stroke-opacity="0.24" stroke-width="6" stroke-linecap="round"/>
    <path d="M124 62h70" stroke="#f0a500" stroke-opacity="0.28" stroke-width="6" stroke-linecap="round"/>
  </g>
</svg>